<?xml version="1.0" standalone="no"?>
<!DOCTYPE svg PUBLIC "-//W3C//DTD SVG 20010904//EN"
 "http://www.w3.org/TR/2001/REC-SVG-20010904/DTD/svg10.dtd">
<svg version="1.0" xmlns="http://www.w3.org/2000/svg"
 width="300.000000pt" height="300.000000pt" viewBox="0 0 300.000000 300.000000"
 preserveAspectRatio="xMidYMid meet">
<metadata>
Created by potrace 1.10, written by Peter Selinger 2001-2011
</metadata>
<g transform="translate(0.000000,300.000000) scale(0.100000,-0.100000)"
fill="#000000" stroke="none">
<path d="M1767 2506 c-26 -35 -47 -68 -47 -73 0 -5 32 -31 70 -58 39 -27 70
-50 70 -52 0 -2 -35 -50 -77 -107 -43 -57 -112 -150 -153 -207 -41 -57 -140
-192 -220 -300 -80 -108 -228 -310 -330 -448 -102 -139 -225 -307 -274 -373
-49 -66 -85 -123 -80 -127 5 -5 61 -46 124 -93 63 -46 156 -114 206 -151 50
-37 96 -67 101 -67 10 0 103 123 102 136 0 9 -100 82 -228 169 -33 22 -60 43
-60 47 -1 6 134 193 159 221 4 5 57 -28 118 -72 60 -45 114 -81 118 -81 8 1
94 111 102 131 3 7 -176 146 -217 169 -12 6 -7 17 26 56 22 27 59 77 83 112
24 34 48 62 54 62 5 0 21 -10 35 -23 54 -49 252 -188 260 -182 13 7 104 136
99 140 -1 2 -66 49 -143 105 -77 56 -140 104 -140 108 0 7 35 55 308 426 160
217 173 236 158 236 -6 0 -29 -26 -52 -57 -24 -32 -45 -60 -49 -63 -3 -3 -17
-21 -30 -40 -13 -19 -74 -102 -135 -185 -60 -82 -117 -160 -125 -171 -8 -12
-34 -49 -57 -82 l-42 -60 20 -26 c11 -14 56 -50 99 -81 44 -31 86 -62 93 -69
7 -7 22 -18 35 -25 28 -15 28 -25 -5 -77 -30 -47 -60 -57 -83 -29 -12 15 -136
106 -198 147 -57 37 -83 19 -185 -131 -33 -48 -47 -76 -42 -89 3 -11 48 -51
100 -88 93 -68 108 -89 82 -116 -7 -7 -21 -25 -31 -41 -10 -15 -22 -27 -26
-27 -4 0 -47 29 -95 65 -129 96 -120 94 -168 43 -72 -74 -140 -183 -133 -210
4 -14 53 -58 131 -116 69 -51 125 -98 125 -106 0 -24 -60 -98 -76 -92 -15 6
-119 81 -142 104 -7 6 -16 12 -20 12 -4 0 -19 10 -33 23 -15 12 -63 49 -108
81 -45 32 -81 64 -81 71 0 10 41 72 72 110 5 5 56 75 115 155 58 80 120 164
137 187 17 23 49 67 71 98 22 30 58 79 80 109 22 30 48 64 57 77 9 13 71 97
137 187 67 89 133 181 148 205 16 23 36 51 46 62 11 11 40 49 65 85 26 36 51
70 57 76 12 14 30 39 89 123 51 75 51 74 -32 142 -29 24 -52 45 -52 49 0 16
66 90 80 90 14 0 83 -49 322 -227 l77 -57 -21 -30 c-12 -17 -30 -41 -41 -53
l-19 -22 -56 39 c-59 40 -92 45 -45 7 46 -37 101 -77 107 -77 5 0 85 102 100
127 4 8 -47 52 -151 129 -87 65 -184 137 -216 161 -31 23 -61 43 -65 43 -5 0
-29 -29 -55 -64z"/>
</g>
</svg>
